#!OML:ASF H:\Terrain\Patient Classification 1\Terrain2\Thursday\justin.ASF
:FULLY-SPECIFIED
:DEGREES
2165
root 8.77667 24.0118 7.4358 -8.34386 1.44054 -2.81873
lowerback 14.9205 4.04611 12.8859
upperback 5.25356 7.25217 2.69275
thorax -1.42579 3.73083 -5.39361
lowerneck -6.46351 -3.72153 -8.72109
upperneck 39.8297 -4.15416 2.39931
head 15.3261 -2.58638 2.0346
rclavicle 6.32135e-014 4.6118e-014
rhumerus -31.2284 7.85294 -76.265
rradius 61.4915
rwrist -12.9042
rhand -21.7751 19.652
rfingers 7.12502
rthumb 4.62596 -10.2775
lclavicle 6.32135e-014 4.6118e-014
lhumerus -51.7448 12.6159 79.9034
lradius 30.4093
lwrist 1.07313
lhand -23.8151 9.41878
lfingers 7.12502
lthumb 2.65589 39.382
rfemur -5.79599 -8.95563 25.941
rtibia 31.4619
rfoot -12.1061 2.12281
rtoes 6.57473
lfemur -26.3903 1.06083 -13.2417
ltibia 56.7022
lfoot 2.97253 -16.0703
ltoes -10.6411
2166
root 8.79038 23.9868 7.52862 -8.01063 0.689759 -2.87271
lowerback 14.4216 4.01483 12.9949
upperback 5.02953 7.16565 2.64792
thorax -1.3943 3.68113 -5.45352
lowerneck -6.44857 -3.56 -8.2368
upperneck 39.9458 -3.89102 2.00109
head 15.3317 -2.4617 1.81671
rclavicle -1.39149e-014 -7.95139e-015
rhumerus -31.128 7.52765 -76.2697
rradius 61.3949
rwrist -13.248
rhand -21.4542 20.1205
rfingers 7.12502
rthumb 4.93582 -9.80204
lclavicle -1.39149e-014 -7.95139e-015
lhumerus -51.8462 11.6756 80.1626
lradius 30.3115
lwrist 1.25431
lhand -23.9715 9.45921
lfingers 7.12502
lthumb 2.50485 39.4242
rfemur -6.07165 -8.54876 26.118
rtibia 32.0133
rfoot -12.7037 2.19365
rtoes 5.88994
lfemur -25.0895 1.39642 -13.222
ltibia 54.6929
lfoot 3.77082 -15.7522
ltoes -9.1316
2167
root 8.8014 23.9636 7.62096 -7.82442 -0.214292 -2.8107
lowerback 14.0889 3.99735 12.9498
upperback 4.88712 7.0938 2.59069
thorax -1.38009 3.63974 -5.45796
lowerneck -6.61912 -3.35803 -7.73741
upperneck 40.1352 -3.5669 1.63214
head 15.4178 -2.30603 1.61521
rclavicle 6.06293e-014 1.90833e-014
rhumerus -30.9504 7.20708 -76.2814
rradius 61.2903
rwrist -13.6203
rhand -20.9721 20.4201
rfingers 7.12502
rthumb 5.40133 -9.49108
lclavicle 6.06293e-014 1.90833e-014
lhumerus -51.9332 10.7072 80.4576
lradius 30.4204
lwrist 1.77894
lhand -23.9744 9.90315
lfingers 7.12502
lthumb 2.50206 39.8682
rfemur -5.89356 -7.86089 26.1873
rtibia 31.9507
rfoot -13.0096 2.27741
rtoes 5.56845
lfemur -23.763 1.82387 -13.2586
ltibia 53.164
lfoot 4.51182 -15.7287
ltoes -5.68915
2168
root 8.80834 23.9381 7.70883 -7.78453 -1.27179 -2.92107
lowerback 13.915 3.96616 13.0054
upperback 4.83818 7.03583 2.62914
thorax -1.34717 3.6098 -5.42695
lowerneck -6.90387 -3.10731 -7.44605
upperneck 40.3856 -3.21804 1.5351
head 15.5776 -2.13726 1.57011
rclavicle -9.83984e-015 4.29375e-014
rhumerus -30.6806 6.79329 -76.25
rradius 61.2759
rwrist -13.7877
rhand -20.6409 20.0986
rfingers 7.12502
rthumb 5.72106 -9.80415
lclavicle -9.83984e-015 4.29375e-014
lhumerus -51.8821 10.1232 80.5114
lradius 30.4137
lwrist 1.72383
lhand -23.3977 10.3736
lfingers 7.12502
lthumb 3.05901 40.3314
rfemur -5.69774 -7.01378 26.4731
rtibia 32.1994
rfoot -13.5569 2.35992
rtoes 5.68625
lfemur -22.2045 2.39163 -13.0607
ltibia 51.5081
lfoot 4.63801 -16.1756
ltoes -4.67876
2169
root 8.77941 23.8511 7.80652 -9.31897 -3.79938 -7.73721
lowerback 15.6324 3.53485 17.3272
upperback 5.12404 7.40344 4.17923
thorax -1.50247 3.79878 -6.25377
lowerneck -7.03891 -2.83889 -7.49715
upperneck 40.5523 -2.83296 1.58718
head 15.6735 -1.98558 1.65759
rclavicle 1.34577e-013 3.33958e-014
rhumerus -30.4969 6.37188 -76.1019
rradius 61.3336
rwrist -14.0047
rhand -20.4905 19.638
rfingers 7.12502
rthumb 5.86622 -10.2608
lclavicle 1.34577e-013 3.33958e-014
lhumerus -51.7138 9.83108 80.4717
lradius 29.9698
lwrist 1.41216
lhand -22.7232 10.4364
lfingers 7.12502
lthumb 3.71042 40.3838
rfemur -3.5359 -4.48242 32.4535
rtibia 32.3685
rfoot -14.0205 0.873074
rtoes 5.53079
lfemur -18.8789 3.97747 -6.90169
ltibia 50.1723
lfoot 4.74997 -17.4373
ltoes -5.42872
2170
root 8.84102 23.8896 7.88333 -7.51949 -3.09044 -3.48202
lowerback 13.3654 3.70036 13.4645
upperback 4.66788 6.6775 2.93818
thorax -1.27968 3.42652 -5.26948
lowerneck -7.16549 -2.60057 -7.64091
upperneck 40.6868 -2.40109 1.45339
head 15.7498 -1.85296 1.68785
rclavicle 8.61732e-014 1.90833e-014
rhumerus -30.2692 6.27549 -75.9792
rradius 61.2084
rwrist -14.7396
rhand -21.1471 19.6556
rfingers 7.12502
rthumb 5.23232 -10.2598
lclavicle 8.61732e-014 1.90833e-014
lhumerus -51.528 9.70785 80.4017
lradius 29.4257
lwrist 1.27202
lhand -22.3092 10.8302
lfingers 7.12502
lthumb 4.11017 40.7703
rfemur -5.61927 -5.80269 27.346
rtibia 32.8945
rfoot -14.5905 2.66778
rtoes 5.53951
lfemur -19.3366 3.30431 -12.4205
ltibia 48.2426
lfoot 4.63777 -16.2071
ltoes -3.04315
